<svg version="1" xmlns="http://www.w3.org/2000/svg" width="346.667" height="346.667" viewBox="0 0 260.000000 260.000000"><path d="M150 38.9c-4.7 3.8-12.5 10.7-17.3 15.3l-8.9 8.4-9.1 1.2c-11.3 1.4-17.2 3.4-26.1 8.6-8.4 5.1-14.9 12.1-19 20.6-2.8 5.9-3.1 7.4-3.1 16 0 11.5 1.7 15.8 9.4 24.2l5.2 5.7-6.2 3.2c-8.1 4-16.3 12.5-20.3 20.9-2.9 6.1-3.1 7.2-3.1 18s.2 11.9 3.2 18.2c4.1 8.8 9.8 14.8 18.1 19.1 13.5 7.1 29.7 9.9 56.7 9.9 26.6 0 42.1-2.8 56-10 16.7-8.7 24.4-22.6 23.3-42.3-.4-6.6-1.1-9.7-3.4-14.4-3.7-7.6-12.1-16.1-20.2-20.4l-6.3-3.3 4.1-4.5c8.4-9 10.8-19.7 7.1-30.8l-2.2-6.5 2.2-9.7c1.1-5.4 2.9-15.5 3.8-22.5l1.8-12.8-7.1-4.7c-8.8-5.9-25.3-14.3-28-14.3-1.2 0-5.9 3.1-10.6 6.9zm22.5 5.1c5.5 2.7 11.5 6.2 13.3 7.7l3.3 2.8L188 62c-1.9 13-5.4 30-6.2 30-1.8 0-18.1-8.7-33.5-17.8l-16.1-9.5 1.6-2.6C136.1 58.7 159.2 39 161 39c.8 0 6 2.2 11.5 5zm-27.6 35.4c9.7 5.7 22.2 12.7 27.7 15.4 10.6 5.3 11 5.7 12.5 13.5 1.9 10.2-2.3 19.1-12.7 26.8l-5.7 4.2 7.3 2.9c8.9 3.5 14.5 7.3 19.8 13.3 7.5 8.5 10.4 18.8 8.5 30.1-4.3 25.2-26.8 36.4-72.8 36.4-45.5 0-66.1-9.5-71.5-32.9-4.1-17.8 5.3-34.9 24.3-44.4 4.2-2 8.1-3.7 8.7-3.7 2 0 .9-1.9-2.4-3.9-4.9-3.1-11.5-10.5-13.9-15.9-3-6.5-3-18.7 0-25.4 4-8.8 15.2-18.7 25.6-22.5 5.4-1.9 16.9-4.1 22.6-4.2 3.9-.1 6.5 1.1 22 10.3z"/><path d="M110.3 101.2c-1.8 2.3-2.3 4.8-1.3 7.2 1 2.7 3.6 3.7 6.8 2.5 1.7-.7 2.2-1.6 2.2-4.7 0-2.1-.5-4.3-1.2-5-1.6-1.6-5.3-1.5-6.5 0zM144.2 101.2c-1.3 1.3-1.6 6.7-.4 8.4 2.3 3.4 7.5 2.1 8.6-2.2 1.3-5.2-4.7-9.7-8.2-6.2zM107 130v3h47v-6h-47v3z"/></svg>